<svg xmlns="http://www.w3.org/2000/svg" xmlns:xlink="http://www.w3.org/1999/xlink" id="body_1" preserveAspectRatio="xMinYMin meet" viewBox="0 0 793 1121"><defs><clipPath id="1"><path d="M0 841L0 -0.8900146L0 -0.8900146L595.28 -0.8900146L595.28 -0.8900146L595.28 841L595.28 841L0 841z" /></clipPath></defs><g transform="matrix(1.333333 0 0 1.333333 0 0)"><g><g clip-path="url(#1)"><path transform="matrix(1 0 0 -1 0 841)" d="M112.912 738.707L553.409 738.707" stroke="#5D5D5D" stroke-width="0.8966" fill="none" /><path transform="matrix(1 0 0 -1 0 841)" d="M122.955 569.991L553.409 569.991" stroke="#5D5D5D" stroke-width="0.8966" fill="none" /><path transform="matrix(1 0 0 -1 0 841)" d="M80.41 490.336L553.409 490.336" stroke="#5D5D5D" stroke-width="0.8966" fill="none" /><path transform="matrix(1 0 0 -1 0 841)" d="M126.477 385.363L553.409 385.363" stroke="#5D5D5D" stroke-width="0.8966" fill="none" /></g></g></g></svg>